HIERARCHY
ROOT Hips
{
	OFFSET -13.091600 -28.302996 44.698402
	CHANNELS 6 Xposition Yposition Zposition Zrotation Xrotation Yrotation
	JOINT Chest
	{
		OFFSET -0.673000 0.623899 5.369202
		CHANNELS 6 Xposition Yposition Zposition Zrotation Xrotation Yrotation
		JOINT Chest2
		{
			OFFSET 0.000000 0.000000 4.415001
			CHANNELS 6 Xposition Yposition Zposition Zrotation Xrotation Yrotation
			JOINT Neck
			{
				OFFSET 0.000000 0.000002 10.273300
				CHANNELS 6 Xposition Yposition Zposition Zrotation Xrotation Yrotation
				JOINT Head
				{
					OFFSET 0.000000 0.000000 2.173897
					CHANNELS 6 Xposition Yposition Zposition Zrotation Xrotation Yrotation
					End Site
					{
						OFFSET 0.000000 0.000000 9.961800
					}
				}
			}
			JOINT LeftCollar
			{
				OFFSET 2.359900 -0.565201 5.928101
				CHANNELS 6 Xposition Yposition Zposition Zrotation Xrotation Yrotation
				JOINT LeftShoulder
				{
					OFFSET 5.443700 0.000000 0.000000
					CHANNELS 6 Xposition Yposition Zposition Zrotation Xrotation Yrotation
					JOINT LeftElbow
					{
						OFFSET 0.000000 0.000000 -10.615799
						CHANNELS 6 Xposition Yposition Zposition Zrotation Xrotation Yrotation
						JOINT LeftWrist
						{
							OFFSET 0.000000 -0.000002 -13.110302
							CHANNELS 6 Xposition Yposition Zposition Zrotation Xrotation Yrotation
							End Site
							{
								OFFSET 0.000000 0.000000 -2.173901
							}
						}
					}
				}
			}
			JOINT RightCollar
			{
				OFFSET -2.636600 -1.718800 6.889698
				CHANNELS 6 Xposition Yposition Zposition Zrotation Xrotation Yrotation
				JOINT RightShoulder
				{
					OFFSET -4.139101 0.000000 0.000000
					CHANNELS 6 Xposition Yposition Zposition Zrotation Xrotation Yrotation
					JOINT RightElbow
					{
						OFFSET 0.000000 0.000000 -10.471802
						CHANNELS 6 Xposition Yposition Zposition Zrotation Xrotation Yrotation
						JOINT RightWrist
						{
							OFFSET 0.000000 0.000000 -12.281898
							CHANNELS 6 Xposition Yposition Zposition Zrotation Xrotation Yrotation
							End Site
							{
								OFFSET 0.000000 -0.000002 -2.173901
							}
						}
					}
				}
			}
		}
	}
	JOINT LeftHip
	{
		OFFSET 2.273400 0.176701 -2.518002
		CHANNELS 6 Xposition Yposition Zposition Zrotation Xrotation Yrotation
		JOINT LeftKnee
		{
			OFFSET 0.000000 -0.000002 -20.456402
			CHANNELS 6 Xposition Yposition Zposition Zrotation Xrotation Yrotation
			JOINT LeftAnkle
			{
				OFFSET 0.000000 -0.000002 -16.635300
				CHANNELS 6 Xposition Yposition Zposition Zrotation Xrotation Yrotation
				End Site
				{
					OFFSET 0.000000 -8.812399 0.000001
				}
			}
		}
	}
	JOINT RightHip
	{
		OFFSET -1.914800 0.018101 -2.699299
		CHANNELS 6 Xposition Yposition Zposition Zrotation Xrotation Yrotation
		JOINT RightKnee
		{
			OFFSET 0.000000 -0.000002 -20.148901
			CHANNELS 6 Xposition Yposition Zposition Zrotation Xrotation Yrotation
			JOINT RightAnkle
			{
				OFFSET 0.000000 -0.000002 -16.838301
				CHANNELS 6 Xposition Yposition Zposition Zrotation Xrotation Yrotation
				End Site
				{
					OFFSET 0.000000 -8.328398 0.000001
				}
			}
		}
	}
}
MOTION
Frames: 6
Frame Time: 0.041667
-10.171700 30.580610 34.915901 1503.168034 -11.400392 -6.597762 -0.673001 0.623903 5.369205 21.816215 12.189340 -16.334018 0.000002 0.000004 4.415010 -8.741203 -1.380258 -0.230816 0.000007 0.000000 10.273302 -47.456199 25.394152 24.650914 -0.000000 -0.000004 2.173901 -1.664689 1.149138 -3.433091 2.359909 -0.565201 5.928100 8.027221 5.462166 -10.936984 5.443699 -0.000002 0.000004 183.396972 148.107885 -204.732817 -0.000004 -0.000002 -10.615797 720.008544 -109.234730 320.354450 -0.000001 -0.000006 -13.110291 -305.810081 -367.471636 342.546090 -2.636592 -1.718800 6.889697 175.437384 -173.741188 163.404954 -4.139103 -0.000005 0.000003 325.052719 -344.161594 417.448458 0.000004 0.000002 -10.471798 200.432926 -81.548122 -194.237644 -0.000003 -0.000002 -12.281903 411.552966 24.024120 76.046773 2.273399 0.176710 -2.518002 -124.733844 -145.190465 -132.468978 0.000005 -0.000003 -20.456398 26.637625 172.748311 -92.504865 -0.000005 -0.000009 -16.635300 57.752159 4.688316 26.308282 -1.914797 0.018105 -2.699299 -63.857030 150.600863 123.928974 0.000002 -0.000001 -20.148901 -32.346447 1.396461 -28.449872 -0.000002 -0.000003 -16.838306 308.040794 45.897679 -20.487755
-10.173605 30.571207 34.869808 1503.080717 -11.277307 -6.529959 -0.672996 0.623901 5.369206 22.147269 11.779929 -16.402262 0.000004 -0.000002 4.415000 -8.821900 -1.358156 -0.227661 -0.000002 -0.000001 10.273301 -47.426477 25.299026 24.818744 0.000000 -0.000004 2.173896 -1.569512 1.132892 -3.560527 2.359902 -0.565201 5.928104 8.162713 5.476455 -10.938930 5.443702 -0.000007 -0.000004 183.840935 148.299553 -205.094503 -0.000001 0.000007 -10.615791 722.822200 -108.824304 322.657262 0.000002 -0.000010 -13.110299 -305.042232 -367.364019 342.141442 -2.636600 -1.718806 6.889703 175.542419 -173.817263 163.352334 -4.139098 -0.000007 0.000006 325.102388 -344.416168 417.582876 -0.000005 0.000003 -10.471801 201.510880 -81.745439 -193.002322 0.000006 0.000002 -12.281902 411.809071 23.941722 76.087918 2.273407 0.176706 -2.518003 -124.589658 -144.953594 -132.309206 0.000001 -0.000008 -20.456392 26.671665 172.647962 -92.303969 -0.000002 -0.000005 -16.635300 57.639222 4.680932 26.209154 -1.914793 0.018100 -2.699299 -63.742174 150.731729 124.034022 0.000002 0.000000 -20.148907 -31.953568 1.296215 -28.517172 -0.000005 -0.000001 -16.838303 307.698410 45.735005 -20.818094
-10.174404 30.562105 34.823803 1502.936135 -11.129759 -6.498284 -0.672999 0.623899 5.369215 22.536477 11.359490 -16.460063 -0.000000 0.000003 4.415004 -8.911091 -1.331510 -0.224440 0.000002 0.000003 10.273303 -47.383870 25.157327 24.998441 0.000002 -0.000004 2.173898 -1.485608 1.157278 -3.648495 2.359899 -0.565201 5.928105 8.310149 5.473991 -10.913345 5.443699 -0.000010 0.000000 184.330017 148.535086 -205.552303 0.000004 0.000005 -10.615795 724.098680 -108.592023 323.507320 0.000006 0.000005 -13.110299 -304.748725 -367.327765 341.779661 -2.636602 -1.718800 6.889708 175.617209 -173.855280 163.316899 -4.139103 -0.000006 0.000002 325.089274 -344.798413 417.756636 -0.000004 0.000003 -10.471799 205.793395 -82.025572 -188.657270 -0.000002 0.000004 -12.281901 412.468949 23.822931 76.126024 2.273401 0.176708 -2.517995 -124.385709 -144.718636 -132.111022 0.000003 -0.000004 -20.456394 26.700449 172.573458 -92.089098 -0.000007 -0.000009 -16.635300 57.547882 4.646847 26.156541 -1.914798 0.018104 -2.699295 -63.547759 150.868852 124.131639 -0.000004 -0.000001 -20.148901 -32.478567 1.533471 -28.634938 -0.000004 -0.000005 -16.838305 307.784115 45.788615 -20.227433
-10.175703 30.551809 34.776604 1502.798766 -11.025855 -6.434534 -0.673002 0.623896 5.369208 22.972998 10.981300 -16.570889 0.000003 -0.000002 4.415009 -9.047701 -1.305054 -0.222475 -0.000001 0.000000 10.273304 -47.290498 24.964483 25.125250 -0.000001 -0.000002 2.173901 -1.408014 1.187583 -3.664450 2.359902 -0.565201 5.928101 8.800729 5.682913 -10.912932 5.443697 -0.000006 0.000001 184.543215 149.087894 -206.068419 -0.000003 0.000002 -10.615801 724.344020 -108.504679 323.409375 0.000002 -0.000002 -13.110299 -304.825277 -367.359211 341.411268 -2.636604 -1.718801 6.889707 175.618343 -173.782265 163.318306 -4.139104 -0.000003 0.000012 325.116321 -345.104460 417.908430 -0.000002 0.000012 -10.471793 206.832690 -82.212849 -187.724362 -0.000002 -0.000006 -12.281905 412.554709 23.845570 76.290973 2.273402 0.176703 -2.518007 -124.254228 -144.466875 -131.980770 -0.000002 -0.000003 -20.456398 26.732010 172.530565 -91.865109 -0.000005 -0.000008 -16.635300 57.481916 4.586644 26.144067 -1.914799 0.018098 -2.699297 -63.255878 151.128126 124.134645 0.000004 -0.000002 -20.148899 -33.135495 1.718452 -28.747798 -0.000003 0.000001 -16.838303 307.844959 45.903639 -19.673685
-10.177704 30.541708 34.724804 1502.647409 -10.896385 -6.518015 -0.673003 0.623897 5.369202 23.420075 10.643340 -16.520846 0.000002 -0.000001 4.415006 -9.198918 -1.282295 -0.220811 -0.000003 -0.000009 10.273306 -47.172715 24.750142 25.203422 0.000001 -0.000007 2.173901 -1.368373 1.198675 -3.537914 2.359899 -0.565207 5.928105 9.007318 5.692754 -10.915970 5.443696 -0.000007 -0.000004 184.993638 149.416686 -206.644013 0.000004 0.000008 -10.615796 723.814271 -108.557702 322.621964 0.000010 0.000000 -13.110293 -305.228259 -367.440326 340.930532 -2.636605 -1.718807 6.889698 175.583714 -173.701368 163.281519 -4.139103 -0.000003 0.000005 325.230413 -345.334802 418.028860 -0.000001 0.000003 -10.471799 205.869196 -82.340417 -188.682432 -0.000001 -0.000004 -12.281897 412.360268 23.863986 76.447965 2.273398 0.176703 -2.518001 -124.094169 -144.286530 -131.750934 -0.000002 0.000000 -20.456392 26.803061 172.506044 -91.656399 -0.000004 -0.000006 -16.635300 57.436502 4.518816 26.178833 -1.914798 0.018100 -2.699299 -62.812066 151.324876 124.009311 0.000000 -0.000005 -20.148905 -33.836522 1.818396 -28.878784 -0.000004 -0.000001 -16.838303 307.877662 45.954821 -19.318348
-10.182903 30.529913 34.669502 1502.515068 -10.724929 -6.604022 -0.673004 0.623892 5.369213 23.894575 10.260762 -16.435086 0.000004 0.000001 4.415005 -9.366473 -1.251841 -0.216605 0.000001 -0.000001 10.273307 -47.048430 24.519918 25.233367 -0.000002 0.000004 2.173903 -1.349914 1.214981 -3.401555 2.359900 -0.565204 5.928097 9.174967 5.805642 -10.942128 5.443704 -0.000007 -0.000004 185.507692 149.884513 -207.254318 0.000001 0.000008 -10.615787 723.632861 -108.487965 322.231332 0.000005 0.000000 -13.110294 -305.534961 -367.515814 340.634320 -2.636603 -1.718803 6.889709 175.512817 -173.670551 163.120777 -4.139101 -0.000004 -0.000004 325.457612 -345.559679 418.182075 -0.000002 0.000002 -10.471797 204.462751 -82.447036 -189.939556 -0.000002 -0.000001 -12.281895 412.057362 23.919056 76.622797 2.273399 0.176701 -2.518000 -123.959136 -144.061394 -131.496687 0.000002 -0.000003 -20.456396 26.910612 172.460432 -91.468398 -0.000004 -0.000008 -16.635300 57.374627 4.463686 26.222177 -1.914797 0.018101 -2.699300 -62.326002 151.549644 123.871054 0.000000 -0.000004 -20.148899 -34.398093 1.790917 -29.019360 0.000000 -0.000003 -16.838308 307.797940 45.937325 -19.256924
